# xmcd
#
# Track frame offsets: 
#        150
#        11869
#        21434
#        40495
#        53944
#        67538
#        79448
#        92579
#        108324
#        124463
#        137302
#
# Disc length: 2014 seconds
#
# Revision: 2
# Processed by: cddbd v1.5.2PL0 Copyright (c) Steve Scherf et al.
# Submitted via: ExactAudioCopyFreeDBPlugin 1.0
#
DISCID=9107dc0b
DTITLE=Otis Redding - Otis Blue - Otis Redding Sings Soul
DYEAR=1965
DGENRE=Soul
TTITLE0=Ole Man Trouble
TTITLE1=Respect
TTITLE2=Change Gonna Come
TTITLE3=Down in the Valley
TTITLE4=I've Been Loving You Too Long
TTITLE5=Shake
TTITLE6=My Girl
TTITLE7=Wonderful World
TTITLE8=Rock Me Baby
TTITLE9=Satisfaction
TTITLE10=You Don't Miss Your Water
EXTD=
EXTT0=
EXTT1=
EXTT2=
EXTT3=
EXTT4=
EXTT5=
EXTT6=
EXTT7=
EXTT8=
EXTT9=
EXTT10=
PLAYORDER=
